<mxfile host="app.diagrams.net" agent="Mozilla/5.0 (Windows NT 10.0; Win64; x64) AppleWebKit/537.36 (KHTML, like Gecko) Chrome/127.0.0.0 Safari/537.36 Edg/127.0.0.0" version="24.7.6" pages="3">
  <diagram id="AqEiRn81GzUdgqaBA_pJ" name="User Profile Registration">
    <mxGraphModel dx="2209" dy="1025" grid="1" gridSize="10" guides="1" tooltips="1" connect="1" arrows="1" fold="1" page="1" pageScale="1" pageWidth="850" pageHeight="1100" math="0" shadow="0">
      <root>
        <mxCell id="0" />
        <mxCell id="1" parent="0" />
        <mxCell id="ptaFD2TA5kwqE4cwW9c4-1" value="Start" style="strokeWidth=2;html=1;shape=mxgraph.flowchart.start_2;whiteSpace=wrap;" vertex="1" parent="1">
          <mxGeometry x="457.5" y="148" width="100" height="100" as="geometry" />
        </mxCell>
        <mxCell id="ptaFD2TA5kwqE4cwW9c4-2" style="edgeStyle=orthogonalEdgeStyle;rounded=0;orthogonalLoop=1;jettySize=auto;html=1;exitX=0;exitY=0.5;exitDx=0;exitDy=0;exitPerimeter=0;entryX=0.5;entryY=0;entryDx=0;entryDy=0;" edge="1" parent="1" source="ptaFD2TA5kwqE4cwW9c4-6" target="ptaFD2TA5kwqE4cwW9c4-7">
          <mxGeometry relative="1" as="geometry" />
        </mxCell>
        <mxCell id="ptaFD2TA5kwqE4cwW9c4-3" value="No" style="edgeLabel;html=1;align=center;verticalAlign=middle;resizable=0;points=[];sketch=1;hachureGap=4;jiggle=2;curveFitting=1;fontFamily=Helvetica;" vertex="1" connectable="0" parent="ptaFD2TA5kwqE4cwW9c4-2">
          <mxGeometry x="0.5022" y="-1" relative="1" as="geometry">
            <mxPoint as="offset" />
          </mxGeometry>
        </mxCell>
        <mxCell id="ptaFD2TA5kwqE4cwW9c4-4" style="edgeStyle=orthogonalEdgeStyle;rounded=0;orthogonalLoop=1;jettySize=auto;html=1;exitX=1;exitY=0.5;exitDx=0;exitDy=0;exitPerimeter=0;entryX=0.5;entryY=0;entryDx=0;entryDy=0;" edge="1" parent="1" source="ptaFD2TA5kwqE4cwW9c4-6" target="ptaFD2TA5kwqE4cwW9c4-8">
          <mxGeometry relative="1" as="geometry" />
        </mxCell>
        <mxCell id="ptaFD2TA5kwqE4cwW9c4-5" value="&lt;font face=&quot;Helvetica&quot;&gt;Yes&lt;/font&gt;" style="edgeLabel;html=1;align=center;verticalAlign=middle;resizable=0;points=[];sketch=1;hachureGap=4;jiggle=2;curveFitting=1;fontFamily=Architects Daughter;fontSource=https%3A%2F%2Ffonts.googleapis.com%2Fcss%3Ffamily%3DArchitects%2BDaughter;" vertex="1" connectable="0" parent="ptaFD2TA5kwqE4cwW9c4-4">
          <mxGeometry x="0.5024" relative="1" as="geometry">
            <mxPoint as="offset" />
          </mxGeometry>
        </mxCell>
        <mxCell id="ptaFD2TA5kwqE4cwW9c4-6" value="Whether the driver&#39;s face&lt;br&gt;is recognized or not" style="strokeWidth=2;html=1;shape=mxgraph.flowchart.decision;whiteSpace=wrap;" vertex="1" parent="1">
          <mxGeometry x="370" y="293" width="275" height="90" as="geometry" />
        </mxCell>
        <mxCell id="ptaFD2TA5kwqE4cwW9c4-7" value="Give a warning to the driver to create a user profile on the HMI" style="rounded=1;whiteSpace=wrap;html=1;absoluteArcSize=1;arcSize=14;strokeWidth=2;" vertex="1" parent="1">
          <mxGeometry x="250" y="398" width="120" height="120" as="geometry" />
        </mxCell>
        <mxCell id="ptaFD2TA5kwqE4cwW9c4-8" value="Set the saved HMI profile" style="rounded=1;whiteSpace=wrap;html=1;absoluteArcSize=1;arcSize=14;strokeWidth=2;" vertex="1" parent="1">
          <mxGeometry x="645" y="398" width="120" height="120" as="geometry" />
        </mxCell>
        <mxCell id="ptaFD2TA5kwqE4cwW9c4-9" style="edgeStyle=orthogonalEdgeStyle;rounded=0;orthogonalLoop=1;jettySize=auto;html=1;exitX=0.5;exitY=1;exitDx=0;exitDy=0;exitPerimeter=0;entryX=0.5;entryY=0;entryDx=0;entryDy=0;entryPerimeter=0;" edge="1" parent="1" source="ptaFD2TA5kwqE4cwW9c4-1" target="ptaFD2TA5kwqE4cwW9c4-6">
          <mxGeometry relative="1" as="geometry" />
        </mxCell>
        <mxCell id="ptaFD2TA5kwqE4cwW9c4-10" style="edgeStyle=orthogonalEdgeStyle;rounded=0;orthogonalLoop=1;jettySize=auto;html=1;exitX=0;exitY=0.5;exitDx=0;exitDy=0;exitPerimeter=0;entryX=0.5;entryY=0;entryDx=0;entryDy=0;" edge="1" parent="1" source="ptaFD2TA5kwqE4cwW9c4-14" target="ptaFD2TA5kwqE4cwW9c4-15">
          <mxGeometry relative="1" as="geometry">
            <Array as="points">
              <mxPoint x="146" y="603" />
              <mxPoint x="146" y="671" />
              <mxPoint x="310" y="671" />
            </Array>
          </mxGeometry>
        </mxCell>
        <mxCell id="ptaFD2TA5kwqE4cwW9c4-11" value="&lt;span style=&quot;font-family: Helvetica;&quot;&gt;Yes, start profile registration&lt;/span&gt;" style="edgeLabel;html=1;align=center;verticalAlign=middle;resizable=0;points=[];sketch=1;hachureGap=4;jiggle=2;curveFitting=1;fontFamily=Architects Daughter;fontSource=https%3A%2F%2Ffonts.googleapis.com%2Fcss%3Ffamily%3DArchitects%2BDaughter;" vertex="1" connectable="0" parent="ptaFD2TA5kwqE4cwW9c4-10">
          <mxGeometry x="0.2566" y="2" relative="1" as="geometry">
            <mxPoint as="offset" />
          </mxGeometry>
        </mxCell>
        <mxCell id="ptaFD2TA5kwqE4cwW9c4-12" style="edgeStyle=orthogonalEdgeStyle;rounded=0;orthogonalLoop=1;jettySize=auto;html=1;exitX=1;exitY=0.5;exitDx=0;exitDy=0;exitPerimeter=0;entryX=0;entryY=0.5;entryDx=0;entryDy=0;entryPerimeter=0;" edge="1" parent="1" source="ptaFD2TA5kwqE4cwW9c4-14" target="ptaFD2TA5kwqE4cwW9c4-26">
          <mxGeometry relative="1" as="geometry">
            <mxPoint x="705" y="693" as="targetPoint" />
          </mxGeometry>
        </mxCell>
        <mxCell id="ptaFD2TA5kwqE4cwW9c4-13" value="&lt;span style=&quot;font-family: Helvetica;&quot;&gt;No, user wants to use without&lt;/span&gt;&lt;br style=&quot;font-family: Helvetica;&quot;&gt;&lt;span style=&quot;font-family: Helvetica;&quot;&gt;&amp;nbsp;the registration&lt;/span&gt;" style="edgeLabel;html=1;align=center;verticalAlign=middle;resizable=0;points=[];sketch=1;hachureGap=4;jiggle=2;curveFitting=1;fontFamily=Architects Daughter;fontSource=https%3A%2F%2Ffonts.googleapis.com%2Fcss%3Ffamily%3DArchitects%2BDaughter;" vertex="1" connectable="0" parent="ptaFD2TA5kwqE4cwW9c4-12">
          <mxGeometry x="-0.001" y="1" relative="1" as="geometry">
            <mxPoint as="offset" />
          </mxGeometry>
        </mxCell>
        <mxCell id="ptaFD2TA5kwqE4cwW9c4-14" value="Does the user want to create a profile?" style="strokeWidth=2;html=1;shape=mxgraph.flowchart.decision;whiteSpace=wrap;" vertex="1" parent="1">
          <mxGeometry x="172.5" y="558" width="275" height="90" as="geometry" />
        </mxCell>
        <mxCell id="ptaFD2TA5kwqE4cwW9c4-15" value="Confirmation movement request application" style="rounded=1;whiteSpace=wrap;html=1;absoluteArcSize=1;arcSize=14;strokeWidth=2;" vertex="1" parent="1">
          <mxGeometry x="250" y="693" width="120" height="120" as="geometry" />
        </mxCell>
        <mxCell id="ptaFD2TA5kwqE4cwW9c4-16" style="edgeStyle=orthogonalEdgeStyle;rounded=0;orthogonalLoop=1;jettySize=auto;html=1;exitX=0.5;exitY=1;exitDx=0;exitDy=0;entryX=0.5;entryY=0;entryDx=0;entryDy=0;entryPerimeter=0;" edge="1" parent="1" source="ptaFD2TA5kwqE4cwW9c4-7" target="ptaFD2TA5kwqE4cwW9c4-14">
          <mxGeometry relative="1" as="geometry" />
        </mxCell>
        <mxCell id="ptaFD2TA5kwqE4cwW9c4-17" style="edgeStyle=orthogonalEdgeStyle;rounded=0;orthogonalLoop=1;jettySize=auto;html=1;exitX=0;exitY=0.5;exitDx=0;exitDy=0;exitPerimeter=0;entryX=0.5;entryY=1;entryDx=0;entryDy=0;" edge="1" parent="1" source="ptaFD2TA5kwqE4cwW9c4-19" target="ptaFD2TA5kwqE4cwW9c4-21">
          <mxGeometry relative="1" as="geometry" />
        </mxCell>
        <mxCell id="ptaFD2TA5kwqE4cwW9c4-18" value="No" style="edgeLabel;html=1;align=center;verticalAlign=middle;resizable=0;points=[];" vertex="1" connectable="0" parent="ptaFD2TA5kwqE4cwW9c4-17">
          <mxGeometry x="-0.0019" relative="1" as="geometry">
            <mxPoint y="-11" as="offset" />
          </mxGeometry>
        </mxCell>
        <mxCell id="ptaFD2TA5kwqE4cwW9c4-19" value="Check if the user can reach&lt;br&gt;&amp;nbsp;HMI and make the confirmation&lt;br&gt;&amp;nbsp;movement" style="strokeWidth=2;html=1;shape=mxgraph.flowchart.decision;whiteSpace=wrap;" vertex="1" parent="1">
          <mxGeometry x="172.5" y="863" width="275" height="90" as="geometry" />
        </mxCell>
        <mxCell id="ptaFD2TA5kwqE4cwW9c4-20" style="edgeStyle=orthogonalEdgeStyle;rounded=0;orthogonalLoop=1;jettySize=auto;html=1;exitX=1;exitY=0.5;exitDx=0;exitDy=0;" edge="1" parent="1" source="ptaFD2TA5kwqE4cwW9c4-21" target="ptaFD2TA5kwqE4cwW9c4-15">
          <mxGeometry relative="1" as="geometry" />
        </mxCell>
        <mxCell id="ptaFD2TA5kwqE4cwW9c4-21" value="Move the mechanism a certain amount closer" style="rounded=1;whiteSpace=wrap;html=1;absoluteArcSize=1;arcSize=14;strokeWidth=2;" vertex="1" parent="1">
          <mxGeometry x="85" y="693" width="120" height="120" as="geometry" />
        </mxCell>
        <mxCell id="ptaFD2TA5kwqE4cwW9c4-22" value="Save driver profile" style="rounded=1;whiteSpace=wrap;html=1;absoluteArcSize=1;arcSize=14;strokeWidth=2;" vertex="1" parent="1">
          <mxGeometry x="645" y="693" width="120" height="120" as="geometry" />
        </mxCell>
        <mxCell id="ptaFD2TA5kwqE4cwW9c4-23" style="edgeStyle=orthogonalEdgeStyle;rounded=0;orthogonalLoop=1;jettySize=auto;html=1;exitX=1;exitY=0.5;exitDx=0;exitDy=0;exitPerimeter=0;entryX=0.5;entryY=1;entryDx=0;entryDy=0;" edge="1" parent="1" source="ptaFD2TA5kwqE4cwW9c4-19" target="ptaFD2TA5kwqE4cwW9c4-22">
          <mxGeometry relative="1" as="geometry" />
        </mxCell>
        <mxCell id="ptaFD2TA5kwqE4cwW9c4-24" value="Yes" style="edgeLabel;html=1;align=center;verticalAlign=middle;resizable=0;points=[];" vertex="1" connectable="0" parent="ptaFD2TA5kwqE4cwW9c4-23">
          <mxGeometry x="-0.4122" y="1" relative="1" as="geometry">
            <mxPoint x="154" y="-44" as="offset" />
          </mxGeometry>
        </mxCell>
        <mxCell id="ptaFD2TA5kwqE4cwW9c4-25" style="edgeStyle=orthogonalEdgeStyle;rounded=0;orthogonalLoop=1;jettySize=auto;html=1;exitX=0.5;exitY=1;exitDx=0;exitDy=0;entryX=0.5;entryY=0;entryDx=0;entryDy=0;entryPerimeter=0;" edge="1" parent="1" source="ptaFD2TA5kwqE4cwW9c4-15" target="ptaFD2TA5kwqE4cwW9c4-19">
          <mxGeometry relative="1" as="geometry" />
        </mxCell>
        <mxCell id="ptaFD2TA5kwqE4cwW9c4-26" value="End" style="strokeWidth=2;html=1;shape=mxgraph.flowchart.start_2;whiteSpace=wrap;" vertex="1" parent="1">
          <mxGeometry x="655" y="553" width="100" height="100" as="geometry" />
        </mxCell>
        <mxCell id="ptaFD2TA5kwqE4cwW9c4-27" style="edgeStyle=orthogonalEdgeStyle;rounded=0;orthogonalLoop=1;jettySize=auto;html=1;exitX=0.5;exitY=0;exitDx=0;exitDy=0;entryX=0.5;entryY=1;entryDx=0;entryDy=0;entryPerimeter=0;" edge="1" parent="1" source="ptaFD2TA5kwqE4cwW9c4-22" target="ptaFD2TA5kwqE4cwW9c4-26">
          <mxGeometry relative="1" as="geometry" />
        </mxCell>
        <mxCell id="ptaFD2TA5kwqE4cwW9c4-28" style="edgeStyle=orthogonalEdgeStyle;rounded=0;orthogonalLoop=1;jettySize=auto;html=1;exitX=0.5;exitY=1;exitDx=0;exitDy=0;entryX=0.5;entryY=0;entryDx=0;entryDy=0;entryPerimeter=0;" edge="1" parent="1" source="ptaFD2TA5kwqE4cwW9c4-8" target="ptaFD2TA5kwqE4cwW9c4-26">
          <mxGeometry relative="1" as="geometry" />
        </mxCell>
      </root>
    </mxGraphModel>
  </diagram>
  <diagram id="AmksF415dSsrvB6qrJmL" name="Control While Driving">
    <mxGraphModel dx="1789" dy="830" grid="1" gridSize="10" guides="1" tooltips="1" connect="1" arrows="1" fold="1" page="1" pageScale="1" pageWidth="850" pageHeight="1100" math="0" shadow="0">
      <root>
        <mxCell id="0" />
        <mxCell id="1" parent="0" />
        <mxCell id="SZPXhSMGmdvWDC1DAa07-1" value="Start" style="strokeWidth=2;html=1;shape=mxgraph.flowchart.start_2;whiteSpace=wrap;" parent="1" vertex="1">
          <mxGeometry x="60" y="565" width="100" height="100" as="geometry" />
        </mxCell>
        <mxCell id="SZPXhSMGmdvWDC1DAa07-2" value="Does the driver extend her&amp;nbsp;&lt;div&gt;hand towards the HMI and&amp;nbsp;&lt;/div&gt;&lt;div&gt;release it while driving?&lt;/div&gt;" style="strokeWidth=2;html=1;shape=mxgraph.flowchart.decision;whiteSpace=wrap;" parent="1" vertex="1">
          <mxGeometry x="231" y="250" width="275" height="90" as="geometry" />
        </mxCell>
        <mxCell id="rNdVV5-SoCApoH0Ur-T8-1" value="Start to bring the mechanism closer at regular intervals" style="rounded=1;whiteSpace=wrap;html=1;absoluteArcSize=1;arcSize=14;strokeWidth=2;" parent="1" vertex="1">
          <mxGeometry x="308.5" y="390" width="120" height="120" as="geometry" />
        </mxCell>
        <mxCell id="j00pYbPCV6hTmDwmlDQn-1" style="edgeStyle=orthogonalEdgeStyle;shape=connector;rounded=0;hachureGap=4;orthogonalLoop=1;jettySize=auto;html=1;exitX=0;exitY=0.5;exitDx=0;exitDy=0;exitPerimeter=0;entryX=1;entryY=0.5;entryDx=0;entryDy=0;strokeColor=default;align=center;verticalAlign=middle;fontFamily=Architects Daughter;fontSource=https%3A%2F%2Ffonts.googleapis.com%2Fcss%3Ffamily%3DArchitects%2BDaughter;fontSize=11;fontColor=default;labelBackgroundColor=default;endArrow=classic;" parent="1" source="blFsxWuzeTsYbY2VbkVz-1" target="rNdVV5-SoCApoH0Ur-T8-1" edge="1">
          <mxGeometry relative="1" as="geometry" />
        </mxCell>
        <mxCell id="NnyxecYXYOuVgj41Yb-E-2" value="&lt;font face=&quot;Helvetica&quot;&gt;No&lt;/font&gt;" style="edgeLabel;html=1;align=center;verticalAlign=middle;resizable=0;points=[];sketch=1;hachureGap=4;jiggle=2;curveFitting=1;fontFamily=Architects Daughter;fontSource=https%3A%2F%2Ffonts.googleapis.com%2Fcss%3Ffamily%3DArchitects%2BDaughter;fontSize=11;fontColor=default;labelBackgroundColor=default;" parent="j00pYbPCV6hTmDwmlDQn-1" vertex="1" connectable="0">
          <mxGeometry x="-0.0268" y="-1" relative="1" as="geometry">
            <mxPoint as="offset" />
          </mxGeometry>
        </mxCell>
        <mxCell id="1k2ieEeg6DOAY-mOEUIB-1" style="edgeStyle=orthogonalEdgeStyle;shape=connector;rounded=0;hachureGap=4;orthogonalLoop=1;jettySize=auto;html=1;exitX=0.5;exitY=1;exitDx=0;exitDy=0;exitPerimeter=0;entryX=0.5;entryY=0;entryDx=0;entryDy=0;strokeColor=default;align=center;verticalAlign=middle;fontFamily=Architects Daughter;fontSource=https%3A%2F%2Ffonts.googleapis.com%2Fcss%3Ffamily%3DArchitects%2BDaughter;fontSize=11;fontColor=default;labelBackgroundColor=default;endArrow=classic;" parent="1" source="blFsxWuzeTsYbY2VbkVz-1" target="bhamblW06QANVMvwrjKl-1" edge="1">
          <mxGeometry relative="1" as="geometry" />
        </mxCell>
        <mxCell id="NnyxecYXYOuVgj41Yb-E-1" value="&lt;font face=&quot;Helvetica&quot;&gt;Yes&lt;/font&gt;" style="edgeLabel;html=1;align=center;verticalAlign=middle;resizable=0;points=[];sketch=1;hachureGap=4;jiggle=2;curveFitting=1;fontFamily=Architects Daughter;fontSource=https%3A%2F%2Ffonts.googleapis.com%2Fcss%3Ffamily%3DArchitects%2BDaughter;fontSize=11;fontColor=default;labelBackgroundColor=default;" parent="1k2ieEeg6DOAY-mOEUIB-1" vertex="1" connectable="0">
          <mxGeometry x="-0.0216" relative="1" as="geometry">
            <mxPoint as="offset" />
          </mxGeometry>
        </mxCell>
        <mxCell id="blFsxWuzeTsYbY2VbkVz-1" value="Is the driver&#39;s touch detected&lt;br&gt;&amp;nbsp;on the screen?" style="strokeWidth=2;html=1;shape=mxgraph.flowchart.decision;whiteSpace=wrap;" parent="1" vertex="1">
          <mxGeometry x="525.5" y="405" width="275" height="90" as="geometry" />
        </mxCell>
        <mxCell id="bhamblW06QANVMvwrjKl-1" value="Stop the mechanism" style="rounded=1;whiteSpace=wrap;html=1;absoluteArcSize=1;arcSize=14;strokeWidth=2;" parent="1" vertex="1">
          <mxGeometry x="603" y="555" width="120" height="120" as="geometry" />
        </mxCell>
        <mxCell id="NGVn6QmUvGQWJI0pI-xG-1" value="&lt;span style=&quot;font-size: 12px;&quot;&gt;Did the HMI position move?&lt;/span&gt;" style="strokeWidth=2;html=1;shape=mxgraph.flowchart.decision;whiteSpace=wrap;" parent="1" vertex="1">
          <mxGeometry x="231" y="570" width="275" height="90" as="geometry" />
        </mxCell>
        <mxCell id="_ZXvutj6KrzrZCdj7j4J-2" style="edgeStyle=orthogonalEdgeStyle;shape=connector;rounded=0;hachureGap=4;orthogonalLoop=1;jettySize=auto;html=1;exitX=1;exitY=0.5;exitDx=0;exitDy=0;exitPerimeter=0;strokeColor=default;align=center;verticalAlign=middle;fontFamily=Architects Daughter;fontSource=https%3A%2F%2Ffonts.googleapis.com%2Fcss%3Ffamily%3DArchitects%2BDaughter;fontSize=11;fontColor=default;labelBackgroundColor=default;endArrow=classic;" parent="1" source="9i6w7RGaze3ZlmVt5Orb-1" target="oorCLXr7VsD9yvp-U09V-1" edge="1">
          <mxGeometry relative="1" as="geometry" />
        </mxCell>
        <mxCell id="fnUFmzbYXeh2UMGDXpkx-5" value="&lt;font face=&quot;Helvetica&quot;&gt;Yes&lt;/font&gt;" style="edgeLabel;html=1;align=center;verticalAlign=middle;resizable=0;points=[];sketch=1;hachureGap=4;jiggle=2;curveFitting=1;fontFamily=Architects Daughter;fontSource=https%3A%2F%2Ffonts.googleapis.com%2Fcss%3Ffamily%3DArchitects%2BDaughter;fontSize=11;fontColor=default;labelBackgroundColor=default;" parent="_ZXvutj6KrzrZCdj7j4J-2" vertex="1" connectable="0">
          <mxGeometry x="0.0047" relative="1" as="geometry">
            <mxPoint as="offset" />
          </mxGeometry>
        </mxCell>
        <mxCell id="_ZXvutj6KrzrZCdj7j4J-3" style="edgeStyle=orthogonalEdgeStyle;shape=connector;rounded=0;hachureGap=4;orthogonalLoop=1;jettySize=auto;html=1;exitX=0;exitY=0.5;exitDx=0;exitDy=0;exitPerimeter=0;entryX=1;entryY=0.5;entryDx=0;entryDy=0;strokeColor=default;align=center;verticalAlign=middle;fontFamily=Architects Daughter;fontSource=https%3A%2F%2Ffonts.googleapis.com%2Fcss%3Ffamily%3DArchitects%2BDaughter;fontSize=11;fontColor=default;labelBackgroundColor=default;endArrow=classic;" parent="1" source="9i6w7RGaze3ZlmVt5Orb-1" target="5LHjYZ4HiTcEuY2RAS_N-1" edge="1">
          <mxGeometry relative="1" as="geometry" />
        </mxCell>
        <mxCell id="fnUFmzbYXeh2UMGDXpkx-2" value="&lt;font face=&quot;Helvetica&quot;&gt;No&lt;/font&gt;" style="edgeLabel;html=1;align=center;verticalAlign=middle;resizable=0;points=[];sketch=1;hachureGap=4;jiggle=2;curveFitting=1;fontFamily=Architects Daughter;fontSource=https%3A%2F%2Ffonts.googleapis.com%2Fcss%3Ffamily%3DArchitects%2BDaughter;fontSize=11;fontColor=default;labelBackgroundColor=default;" parent="_ZXvutj6KrzrZCdj7j4J-3" vertex="1" connectable="0">
          <mxGeometry x="-0.022" y="-1" relative="1" as="geometry">
            <mxPoint as="offset" />
          </mxGeometry>
        </mxCell>
        <mxCell id="9i6w7RGaze3ZlmVt5Orb-1" value="&lt;span style=&quot;font-size: 12px;&quot;&gt;Does the driver have a profile record?&lt;/span&gt;" style="strokeWidth=2;html=1;shape=mxgraph.flowchart.decision;whiteSpace=wrap;" parent="1" vertex="1">
          <mxGeometry x="231" y="735" width="275" height="90" as="geometry" />
        </mxCell>
        <mxCell id="t1DHvSLTZLAyLKvct3SR-2" style="edgeStyle=orthogonalEdgeStyle;shape=connector;rounded=0;hachureGap=4;orthogonalLoop=1;jettySize=auto;html=1;exitX=0.5;exitY=0;exitDx=0;exitDy=0;strokeColor=default;align=center;verticalAlign=middle;fontFamily=Architects Daughter;fontSource=https%3A%2F%2Ffonts.googleapis.com%2Fcss%3Ffamily%3DArchitects%2BDaughter;fontSize=11;fontColor=default;labelBackgroundColor=default;endArrow=classic;" parent="1" source="5LHjYZ4HiTcEuY2RAS_N-1" target="SZPXhSMGmdvWDC1DAa07-1" edge="1">
          <mxGeometry relative="1" as="geometry" />
        </mxCell>
        <mxCell id="5LHjYZ4HiTcEuY2RAS_N-1" value="Request profile registration at the end of the ride" style="rounded=1;whiteSpace=wrap;html=1;absoluteArcSize=1;arcSize=14;strokeWidth=2;" parent="1" vertex="1">
          <mxGeometry x="50" y="720" width="120" height="120" as="geometry" />
        </mxCell>
        <mxCell id="2BcC6fQpgAqYg0BeU9Yx-2" style="edgeStyle=orthogonalEdgeStyle;shape=connector;rounded=0;hachureGap=4;orthogonalLoop=1;jettySize=auto;html=1;exitX=0.5;exitY=1;exitDx=0;exitDy=0;strokeColor=default;align=center;verticalAlign=middle;fontFamily=Architects Daughter;fontSource=https%3A%2F%2Ffonts.googleapis.com%2Fcss%3Ffamily%3DArchitects%2BDaughter;fontSize=11;fontColor=default;labelBackgroundColor=default;endArrow=classic;" parent="1" source="oorCLXr7VsD9yvp-U09V-1" edge="1">
          <mxGeometry relative="1" as="geometry">
            <mxPoint x="663.06" y="870" as="targetPoint" />
          </mxGeometry>
        </mxCell>
        <mxCell id="2BcC6fQpgAqYg0BeU9Yx-3" value="&lt;font face=&quot;Helvetica&quot;&gt;Return to Start&lt;/font&gt;" style="edgeLabel;html=1;align=center;verticalAlign=middle;resizable=0;points=[];sketch=1;hachureGap=4;jiggle=2;curveFitting=1;fontFamily=Architects Daughter;fontSource=https%3A%2F%2Ffonts.googleapis.com%2Fcss%3Ffamily%3DArchitects%2BDaughter;fontSize=11;fontColor=default;labelBackgroundColor=default;" parent="2BcC6fQpgAqYg0BeU9Yx-2" vertex="1" connectable="0">
          <mxGeometry x="0.9286" relative="1" as="geometry">
            <mxPoint y="11" as="offset" />
          </mxGeometry>
        </mxCell>
        <mxCell id="oorCLXr7VsD9yvp-U09V-1" value="Update profile record" style="rounded=1;whiteSpace=wrap;html=1;absoluteArcSize=1;arcSize=14;strokeWidth=2;" parent="1" vertex="1">
          <mxGeometry x="603" y="720" width="120" height="120" as="geometry" />
        </mxCell>
        <mxCell id="aDcoeOeW0zedcQk-I20n-1" style="edgeStyle=orthogonalEdgeStyle;shape=connector;rounded=0;hachureGap=4;orthogonalLoop=1;jettySize=auto;html=1;exitX=1;exitY=0.5;exitDx=0;exitDy=0;exitPerimeter=0;entryX=0.5;entryY=0;entryDx=0;entryDy=0;entryPerimeter=0;strokeColor=default;align=center;verticalAlign=middle;fontFamily=Architects Daughter;fontSource=https%3A%2F%2Ffonts.googleapis.com%2Fcss%3Ffamily%3DArchitects%2BDaughter;fontSize=11;fontColor=default;labelBackgroundColor=default;endArrow=classic;" parent="1" source="SZPXhSMGmdvWDC1DAa07-2" target="blFsxWuzeTsYbY2VbkVz-1" edge="1">
          <mxGeometry relative="1" as="geometry" />
        </mxCell>
        <mxCell id="LnlZ-8nH_xDqkH9uLOZ6-1" value="&lt;font face=&quot;Helvetica&quot;&gt;Yes&lt;/font&gt;" style="edgeLabel;html=1;align=center;verticalAlign=middle;resizable=0;points=[];sketch=1;hachureGap=4;jiggle=2;curveFitting=1;fontFamily=Architects Daughter;fontSource=https%3A%2F%2Ffonts.googleapis.com%2Fcss%3Ffamily%3DArchitects%2BDaughter;fontSize=11;fontColor=default;labelBackgroundColor=default;" parent="aDcoeOeW0zedcQk-I20n-1" vertex="1" connectable="0">
          <mxGeometry x="-0.3978" relative="1" as="geometry">
            <mxPoint as="offset" />
          </mxGeometry>
        </mxCell>
        <mxCell id="j00pYbPCV6hTmDwmlDQn-2" style="edgeStyle=orthogonalEdgeStyle;shape=connector;rounded=0;hachureGap=4;orthogonalLoop=1;jettySize=auto;html=1;exitX=0.5;exitY=0;exitDx=0;exitDy=0;entryX=0.5;entryY=1;entryDx=0;entryDy=0;entryPerimeter=0;strokeColor=default;align=center;verticalAlign=middle;fontFamily=Architects Daughter;fontSource=https%3A%2F%2Ffonts.googleapis.com%2Fcss%3Ffamily%3DArchitects%2BDaughter;fontSize=11;fontColor=default;labelBackgroundColor=default;endArrow=classic;" parent="1" source="rNdVV5-SoCApoH0Ur-T8-1" target="SZPXhSMGmdvWDC1DAa07-2" edge="1">
          <mxGeometry relative="1" as="geometry" />
        </mxCell>
        <mxCell id="_ZXvutj6KrzrZCdj7j4J-1" style="edgeStyle=orthogonalEdgeStyle;shape=connector;rounded=0;hachureGap=4;orthogonalLoop=1;jettySize=auto;html=1;exitX=0.5;exitY=1;exitDx=0;exitDy=0;exitPerimeter=0;entryX=0.5;entryY=0;entryDx=0;entryDy=0;entryPerimeter=0;strokeColor=default;align=center;verticalAlign=middle;fontFamily=Architects Daughter;fontSource=https%3A%2F%2Ffonts.googleapis.com%2Fcss%3Ffamily%3DArchitects%2BDaughter;fontSize=11;fontColor=default;labelBackgroundColor=default;endArrow=classic;" parent="1" source="NGVn6QmUvGQWJI0pI-xG-1" target="9i6w7RGaze3ZlmVt5Orb-1" edge="1">
          <mxGeometry relative="1" as="geometry" />
        </mxCell>
        <mxCell id="fnUFmzbYXeh2UMGDXpkx-3" value="&lt;font face=&quot;Helvetica&quot;&gt;Yes&lt;/font&gt;" style="edgeLabel;html=1;align=center;verticalAlign=middle;resizable=0;points=[];sketch=1;hachureGap=4;jiggle=2;curveFitting=1;fontFamily=Architects Daughter;fontSource=https%3A%2F%2Ffonts.googleapis.com%2Fcss%3Ffamily%3DArchitects%2BDaughter;fontSize=11;fontColor=default;labelBackgroundColor=default;" parent="_ZXvutj6KrzrZCdj7j4J-1" vertex="1" connectable="0">
          <mxGeometry x="-0.0087" relative="1" as="geometry">
            <mxPoint as="offset" />
          </mxGeometry>
        </mxCell>
        <mxCell id="t1DHvSLTZLAyLKvct3SR-1" style="edgeStyle=orthogonalEdgeStyle;shape=connector;rounded=0;hachureGap=4;orthogonalLoop=1;jettySize=auto;html=1;exitX=0;exitY=0.5;exitDx=0;exitDy=0;exitPerimeter=0;entryX=1;entryY=0.5;entryDx=0;entryDy=0;entryPerimeter=0;strokeColor=default;align=center;verticalAlign=middle;fontFamily=Architects Daughter;fontSource=https%3A%2F%2Ffonts.googleapis.com%2Fcss%3Ffamily%3DArchitects%2BDaughter;fontSize=11;fontColor=default;labelBackgroundColor=default;endArrow=classic;" parent="1" source="NGVn6QmUvGQWJI0pI-xG-1" target="SZPXhSMGmdvWDC1DAa07-1" edge="1">
          <mxGeometry relative="1" as="geometry" />
        </mxCell>
        <mxCell id="fnUFmzbYXeh2UMGDXpkx-1" value="&lt;font face=&quot;Helvetica&quot;&gt;No&lt;/font&gt;" style="edgeLabel;html=1;align=center;verticalAlign=middle;resizable=0;points=[];sketch=1;hachureGap=4;jiggle=2;curveFitting=1;fontFamily=Architects Daughter;fontSource=https%3A%2F%2Ffonts.googleapis.com%2Fcss%3Ffamily%3DArchitects%2BDaughter;fontSize=11;fontColor=default;labelBackgroundColor=default;" parent="t1DHvSLTZLAyLKvct3SR-1" vertex="1" connectable="0">
          <mxGeometry x="-0.0137" relative="1" as="geometry">
            <mxPoint as="offset" />
          </mxGeometry>
        </mxCell>
        <mxCell id="-xi5ihP7zQD9aRlr7Uzp-1" style="edgeStyle=orthogonalEdgeStyle;shape=connector;rounded=0;hachureGap=4;orthogonalLoop=1;jettySize=auto;html=1;strokeColor=default;align=center;verticalAlign=middle;fontFamily=Architects Daughter;fontSource=https%3A%2F%2Ffonts.googleapis.com%2Fcss%3Ffamily%3DArchitects%2BDaughter;fontSize=11;fontColor=default;labelBackgroundColor=default;endArrow=classic;startArrow=block;startFill=1;exitX=0;exitY=0.5;exitDx=0;exitDy=0;exitPerimeter=0;" parent="1" source="SZPXhSMGmdvWDC1DAa07-2" target="SZPXhSMGmdvWDC1DAa07-1" edge="1">
          <mxGeometry relative="1" as="geometry">
            <mxPoint x="113.06" y="280" as="sourcePoint" />
            <Array as="points">
              <mxPoint x="110.06" y="295" />
            </Array>
          </mxGeometry>
        </mxCell>
        <mxCell id="xIIJv1ZJoXkVAXIXRnns-2" value="&lt;font face=&quot;Helvetica&quot;&gt;No&lt;/font&gt;" style="edgeLabel;html=1;align=center;verticalAlign=middle;resizable=0;points=[];sketch=1;hachureGap=4;jiggle=2;curveFitting=1;fontFamily=Architects Daughter;fontSource=https%3A%2F%2Ffonts.googleapis.com%2Fcss%3Ffamily%3DArchitects%2BDaughter;fontSize=11;fontColor=default;labelBackgroundColor=default;" parent="-xi5ihP7zQD9aRlr7Uzp-1" vertex="1" connectable="0">
          <mxGeometry x="-0.7468" y="-2" relative="1" as="geometry">
            <mxPoint as="offset" />
          </mxGeometry>
        </mxCell>
        <mxCell id="2BcC6fQpgAqYg0BeU9Yx-1" style="edgeStyle=orthogonalEdgeStyle;shape=connector;rounded=0;hachureGap=4;orthogonalLoop=1;jettySize=auto;html=1;exitX=0;exitY=0.5;exitDx=0;exitDy=0;entryX=1;entryY=0.5;entryDx=0;entryDy=0;entryPerimeter=0;strokeColor=default;align=center;verticalAlign=middle;fontFamily=Architects Daughter;fontSource=https%3A%2F%2Ffonts.googleapis.com%2Fcss%3Ffamily%3DArchitects%2BDaughter;fontSize=11;fontColor=default;labelBackgroundColor=default;endArrow=classic;" parent="1" source="bhamblW06QANVMvwrjKl-1" target="NGVn6QmUvGQWJI0pI-xG-1" edge="1">
          <mxGeometry relative="1" as="geometry" />
        </mxCell>
      </root>
    </mxGraphModel>
  </diagram>
  <diagram id="i02SGIBjq4uqNVCTyk91" name="Components">
    <mxGraphModel dx="1878" dy="871" grid="1" gridSize="10" guides="1" tooltips="1" connect="1" arrows="1" fold="1" page="1" pageScale="1" pageWidth="850" pageHeight="1100" math="0" shadow="0">
      <root>
        <mxCell id="0" />
        <mxCell id="1" parent="0" />
        <mxCell id="H6OPWlMVketK5wdcpJMo-1" value="Infotainment System" style="swimlane;labelBackgroundColor=none;rounded=1;swimlaneHead=1;absoluteArcSize=0;connectable=1;allowArrows=1;pointerEvents=1;expand=1;editable=1;movable=1;resizable=1;rotatable=1;deletable=1;locked=0;direction=east;overflow=visible;" vertex="1" parent="1">
          <mxGeometry x="185" y="420" width="200" height="260" as="geometry">
            <mxRectangle x="40" y="30" width="150" height="30" as="alternateBounds" />
          </mxGeometry>
        </mxCell>
        <mxCell id="H6OPWlMVketK5wdcpJMo-2" value="Touch Screen" style="rounded=1;whiteSpace=wrap;html=1;labelBackgroundColor=none;" vertex="1" parent="H6OPWlMVketK5wdcpJMo-1">
          <mxGeometry x="40" y="178" width="120" height="60" as="geometry" />
        </mxCell>
        <mxCell id="H6OPWlMVketK5wdcpJMo-3" value="Profile Registration" style="rounded=1;whiteSpace=wrap;html=1;labelBackgroundColor=none;" vertex="1" parent="H6OPWlMVketK5wdcpJMo-1">
          <mxGeometry x="40" y="108" width="120" height="60" as="geometry" />
        </mxCell>
        <mxCell id="H6OPWlMVketK5wdcpJMo-4" value="HMI Adjustment" style="rounded=1;whiteSpace=wrap;html=1;labelBackgroundColor=none;" vertex="1" parent="H6OPWlMVketK5wdcpJMo-1">
          <mxGeometry x="40" y="38" width="120" height="60" as="geometry" />
        </mxCell>
        <mxCell id="H6OPWlMVketK5wdcpJMo-5" value="Camera" style="swimlane;labelBackgroundColor=none;rounded=1;" vertex="1" parent="1">
          <mxGeometry x="465" y="420" width="200" height="260" as="geometry">
            <mxRectangle x="320" y="30" width="78" height="26" as="alternateBounds" />
          </mxGeometry>
        </mxCell>
        <mxCell id="H6OPWlMVketK5wdcpJMo-6" value="Face Recognition" style="rounded=1;whiteSpace=wrap;html=1;labelBackgroundColor=none;" vertex="1" parent="H6OPWlMVketK5wdcpJMo-5">
          <mxGeometry x="40" y="38" width="120" height="60" as="geometry" />
        </mxCell>
        <mxCell id="H6OPWlMVketK5wdcpJMo-7" value="Driver Gesture Recognition" style="rounded=1;whiteSpace=wrap;html=1;labelBackgroundColor=none;" vertex="1" parent="H6OPWlMVketK5wdcpJMo-5">
          <mxGeometry x="40" y="108" width="120" height="60" as="geometry" />
        </mxCell>
      </root>
    </mxGraphModel>
  </diagram>
</mxfile>
